<svg width="56" height="56" viewBox="0 0 56 56" fill="none" xmlns="http://www.w3.org/2000/svg">
<rect x="0.5" y="0.5" width="55" height="55" rx="27.5" stroke="#10C843"/>
<path d="M20 38V22H24C24 20.9 24.3917 19.9583 25.175 19.175C25.9583 18.3917 26.9 18 28 18C29.1 18 30.0417 18.3917 30.825 19.175C31.6083 19.9583 32 20.9 32 22H36V38H20ZM28 20C27.45 20 26.979 20.196 26.587 20.588C26.195 20.98 25.9993 21.4507 26 22H30C30 21.45 29.804 20.979 29.412 20.587C29.02 20.195 28.5493 19.9993 28 20ZM24 27H26V24H24V27ZM30 27H32V24H30V27Z" fill="#10C843"/>
</svg>
