<svg width="101" height="26" viewBox="0 0 101 26" fill="none" xmlns="http://www.w3.org/2000/svg">
<rect width="101" height="26" rx="6" fill="#CFF4D9"/>
<path d="M8.95881 17V8.27273H12.1548C12.7741 8.27273 13.2869 8.375 13.6932 8.57955C14.0994 8.78125 14.4034 9.0554 14.6051 9.40199C14.8068 9.74574 14.9077 10.1335 14.9077 10.5653C14.9077 10.929 14.8409 11.2358 14.7074 11.4858C14.5739 11.733 14.3949 11.9318 14.1705 12.0824C13.9489 12.2301 13.7045 12.3381 13.4375 12.4062V12.4915C13.7273 12.5057 14.0099 12.5994 14.2855 12.7727C14.5639 12.9432 14.794 13.1861 14.9759 13.5014C15.1577 13.8168 15.2486 14.2003 15.2486 14.652C15.2486 15.098 15.1435 15.4986 14.9332 15.8537C14.7259 16.206 14.4048 16.4858 13.9702 16.6932C13.5355 16.8977 12.9801 17 12.304 17H8.95881ZM10.2756 15.8707H12.1761C12.8068 15.8707 13.2585 15.7486 13.5312 15.5043C13.804 15.2599 13.9403 14.9545 13.9403 14.5881C13.9403 14.3125 13.8707 14.0597 13.7315 13.8295C13.5923 13.5994 13.3935 13.4162 13.1349 13.2798C12.8793 13.1435 12.5753 13.0753 12.223 13.0753H10.2756V15.8707ZM10.2756 12.0483H12.0398C12.3352 12.0483 12.6009 11.9915 12.8366 11.8778C13.0753 11.7642 13.2642 11.6051 13.4034 11.4006C13.5455 11.1932 13.6165 10.9489 13.6165 10.6676C13.6165 10.3068 13.4901 10.0043 13.2372 9.75994C12.9844 9.51562 12.5966 9.39347 12.0739 9.39347H10.2756V12.0483ZM19.5291 17.1321C18.8842 17.1321 18.3288 16.9943 17.8629 16.7188C17.3999 16.4403 17.0419 16.0497 16.7891 15.5469C16.5391 15.0412 16.4141 14.4489 16.4141 13.7699C16.4141 13.0994 16.5391 12.5085 16.7891 11.9972C17.0419 11.4858 17.3942 11.0866 17.8459 10.7997C18.3004 10.5128 18.8317 10.3693 19.4396 10.3693C19.8089 10.3693 20.1669 10.4304 20.5135 10.5526C20.8601 10.6747 21.1712 10.8665 21.4467 11.1278C21.7223 11.3892 21.9396 11.7287 22.0987 12.1463C22.2578 12.5611 22.3374 13.0653 22.3374 13.6591V14.1108H17.1342V13.1562H21.0888C21.0888 12.821 21.0206 12.5241 20.8842 12.2656C20.7479 12.0043 20.5561 11.7983 20.3089 11.6477C20.0646 11.4972 19.7777 11.4219 19.4482 11.4219C19.0902 11.4219 18.7777 11.5099 18.5107 11.6861C18.2464 11.8594 18.0419 12.0866 17.897 12.3679C17.755 12.6463 17.6839 12.9489 17.6839 13.2756V14.0213C17.6839 14.4588 17.7607 14.831 17.9141 15.1378C18.0703 15.4446 18.2876 15.679 18.5661 15.8409C18.8445 16 19.1697 16.0795 19.5419 16.0795C19.7834 16.0795 20.0036 16.0455 20.2024 15.9773C20.4013 15.9062 20.5732 15.8011 20.718 15.6619C20.8629 15.5227 20.9737 15.3509 21.0504 15.1463L22.2564 15.3636C22.1598 15.7187 21.9865 16.0298 21.7365 16.2969C21.4893 16.5611 21.1783 16.767 20.8033 16.9148C20.4311 17.0597 20.0064 17.1321 19.5291 17.1321ZM26.4954 19.5909C25.9755 19.5909 25.5281 19.5227 25.1531 19.3864C24.7809 19.25 24.4769 19.0696 24.2411 18.8452C24.0053 18.6207 23.8292 18.375 23.7127 18.108L24.8079 17.6562C24.8846 17.7812 24.9869 17.9134 25.1147 18.0526C25.2454 18.1946 25.4215 18.3153 25.6431 18.4148C25.8675 18.5142 26.1559 18.5639 26.5082 18.5639C26.9911 18.5639 27.3903 18.446 27.7056 18.2102C28.021 17.9773 28.1786 17.6051 28.1786 17.0938V15.8068H28.0977C28.021 15.946 27.9102 16.1009 27.7653 16.2713C27.6232 16.4418 27.4272 16.5895 27.1772 16.7145C26.9272 16.8395 26.6019 16.902 26.2013 16.902C25.6843 16.902 25.2184 16.7812 24.8036 16.5398C24.3917 16.2955 24.065 15.9361 23.8235 15.4616C23.5849 14.9844 23.4656 14.3977 23.4656 13.7017C23.4656 13.0057 23.5835 12.4091 23.8192 11.9119C24.0579 11.4148 24.3846 11.0341 24.7994 10.7699C25.2141 10.5028 25.6843 10.3693 26.2099 10.3693C26.6161 10.3693 26.9442 10.4375 27.1942 10.5739C27.4442 10.7074 27.6388 10.8636 27.7781 11.0426C27.9201 11.2216 28.0295 11.3793 28.1062 11.5156H28.1999V10.4545H29.4485V17.1449C29.4485 17.7074 29.3178 18.169 29.0565 18.5298C28.7951 18.8906 28.4414 19.1577 27.9954 19.331C27.5522 19.5043 27.0522 19.5909 26.4954 19.5909ZM26.4826 15.8452C26.8491 15.8452 27.1587 15.7599 27.4116 15.5895C27.6673 15.4162 27.8604 15.169 27.9911 14.848C28.1246 14.5241 28.1914 14.1364 28.1914 13.6847C28.1914 13.2443 28.1261 12.8565 27.9954 12.5213C27.8647 12.1861 27.6729 11.9247 27.4201 11.7372C27.1673 11.5469 26.8548 11.4517 26.4826 11.4517C26.0991 11.4517 25.7795 11.5511 25.5238 11.75C25.2681 11.946 25.0749 12.2131 24.9442 12.5511C24.8164 12.8892 24.7525 13.267 24.7525 13.6847C24.7525 14.1136 24.8178 14.4901 24.9485 14.8139C25.0792 15.1378 25.2724 15.3906 25.5281 15.5724C25.7866 15.7543 26.1048 15.8452 26.4826 15.8452ZM31.1573 17V10.4545H32.4315V17H31.1573ZM31.8008 9.4446C31.5792 9.4446 31.3888 9.37074 31.2298 9.22301C31.0735 9.07244 30.9954 8.89347 30.9954 8.68608C30.9954 8.47585 31.0735 8.29687 31.2298 8.14915C31.3888 7.99858 31.5792 7.9233 31.8008 7.9233C32.0224 7.9233 32.2113 7.99858 32.3675 8.14915C32.5266 8.29687 32.6062 8.47585 32.6062 8.68608C32.6062 8.89347 32.5266 9.07244 32.3675 9.22301C32.2113 9.37074 32.0224 9.4446 31.8008 9.4446ZM35.4197 13.1136V17H34.1456V10.4545H35.3686V11.5199H35.4496C35.6001 11.1733 35.8359 10.8949 36.157 10.6847C36.4808 10.4744 36.8885 10.3693 37.38 10.3693C37.826 10.3693 38.2166 10.4631 38.5518 10.6506C38.8871 10.8352 39.147 11.1108 39.3317 11.4773C39.5163 11.8437 39.6087 12.2969 39.6087 12.8366V17H38.3345V12.9901C38.3345 12.5156 38.2109 12.1449 37.9638 11.8778C37.7166 11.608 37.3771 11.473 36.9453 11.473C36.6499 11.473 36.3871 11.5369 36.157 11.6648C35.9297 11.7926 35.7493 11.9801 35.6158 12.2273C35.4851 12.4716 35.4197 12.767 35.4197 13.1136ZM42.5916 13.1136V17H41.3175V10.4545H42.5405V11.5199H42.6214C42.772 11.1733 43.0078 10.8949 43.3288 10.6847C43.6527 10.4744 44.0604 10.3693 44.5518 10.3693C44.9979 10.3693 45.3885 10.4631 45.7237 10.6506C46.0589 10.8352 46.3189 11.1108 46.5036 11.4773C46.6882 11.8437 46.7805 12.2969 46.7805 12.8366V17H45.5064V12.9901C45.5064 12.5156 45.3828 12.1449 45.1357 11.8778C44.8885 11.608 44.549 11.473 44.1172 11.473C43.8217 11.473 43.5589 11.5369 43.3288 11.6648C43.1016 11.7926 42.9212 11.9801 42.7876 12.2273C42.657 12.4716 42.5916 12.767 42.5916 13.1136ZM51.3104 17.1321C50.6655 17.1321 50.1101 16.9943 49.6442 16.7188C49.1811 16.4403 48.8232 16.0497 48.5703 15.5469C48.3203 15.0412 48.1953 14.4489 48.1953 13.7699C48.1953 13.0994 48.3203 12.5085 48.5703 11.9972C48.8232 11.4858 49.1754 11.0866 49.6271 10.7997C50.0817 10.5128 50.6129 10.3693 51.2209 10.3693C51.5902 10.3693 51.9482 10.4304 52.2947 10.5526C52.6413 10.6747 52.9524 10.8665 53.228 11.1278C53.5036 11.3892 53.7209 11.7287 53.88 12.1463C54.0391 12.5611 54.1186 13.0653 54.1186 13.6591V14.1108H48.9155V13.1562H52.87C52.87 12.821 52.8018 12.5241 52.6655 12.2656C52.5291 12.0043 52.3374 11.7983 52.0902 11.6477C51.8459 11.4972 51.5589 11.4219 51.2294 11.4219C50.8714 11.4219 50.5589 11.5099 50.2919 11.6861C50.0277 11.8594 49.8232 12.0866 49.6783 12.3679C49.5362 12.6463 49.4652 12.9489 49.4652 13.2756V14.0213C49.4652 14.4588 49.5419 14.831 49.6953 15.1378C49.8516 15.4446 50.0689 15.679 50.3473 15.8409C50.6257 16 50.951 16.0795 51.3232 16.0795C51.5646 16.0795 51.7848 16.0455 51.9837 15.9773C52.1825 15.9062 52.3544 15.8011 52.4993 15.6619C52.6442 15.5227 52.755 15.3509 52.8317 15.1463L54.0376 15.3636C53.9411 15.7187 53.7678 16.0298 53.5178 16.2969C53.2706 16.5611 52.9595 16.767 52.5845 16.9148C52.2124 17.0597 51.7876 17.1321 51.3104 17.1321ZM55.5323 17V10.4545H56.7638V11.4943H56.832C56.9513 11.142 57.1616 10.8651 57.4627 10.6634C57.7667 10.4588 58.1104 10.3565 58.494 10.3565C58.5735 10.3565 58.6673 10.3594 58.7752 10.3651C58.886 10.3707 58.9727 10.3778 59.0352 10.3864V11.6051C58.984 11.5909 58.8931 11.5753 58.7624 11.5582C58.6317 11.5384 58.5011 11.5284 58.3704 11.5284C58.0692 11.5284 57.8008 11.5923 57.565 11.7202C57.332 11.8452 57.1474 12.0199 57.011 12.2443C56.8746 12.4659 56.8065 12.7187 56.8065 13.0028V17H55.5323ZM63.4158 17V8.27273H64.7326V15.8665H68.6871V17H63.4158ZM72.908 17.1321C72.2631 17.1321 71.7077 16.9943 71.2418 16.7188C70.7788 16.4403 70.4208 16.0497 70.168 15.5469C69.918 15.0412 69.793 14.4489 69.793 13.7699C69.793 13.0994 69.918 12.5085 70.168 11.9972C70.4208 11.4858 70.7731 11.0866 71.2248 10.7997C71.6793 10.5128 72.2106 10.3693 72.8185 10.3693C73.1879 10.3693 73.5458 10.4304 73.8924 10.5526C74.239 10.6747 74.5501 10.8665 74.8256 11.1278C75.1012 11.3892 75.3185 11.7287 75.4776 12.1463C75.6367 12.5611 75.7163 13.0653 75.7163 13.6591V14.1108H70.5131V13.1562H74.4677C74.4677 12.821 74.3995 12.5241 74.2631 12.2656C74.1268 12.0043 73.935 11.7983 73.6879 11.6477C73.4435 11.4972 73.1566 11.4219 72.8271 11.4219C72.4691 11.4219 72.1566 11.5099 71.8896 11.6861C71.6254 11.8594 71.4208 12.0866 71.2759 12.3679C71.1339 12.6463 71.0629 12.9489 71.0629 13.2756V14.0213C71.0629 14.4588 71.1396 14.831 71.293 15.1378C71.4492 15.4446 71.6665 15.679 71.945 15.8409C72.2234 16 72.5487 16.0795 72.9208 16.0795C73.1623 16.0795 73.3825 16.0455 73.5813 15.9773C73.7802 15.9062 73.9521 15.8011 74.0969 15.6619C74.2418 15.5227 74.3526 15.3509 74.4293 15.1463L75.6353 15.3636C75.5387 15.7187 75.3654 16.0298 75.1154 16.2969C74.8683 16.5611 74.5572 16.767 74.1822 16.9148C73.81 17.0597 73.3853 17.1321 72.908 17.1321ZM82.5419 10.4545L80.1683 17H78.8047L76.4268 10.4545H77.7947L79.4524 15.4915H79.5206L81.174 10.4545H82.5419ZM86.3377 17.1321C85.6928 17.1321 85.1374 16.9943 84.6715 16.7188C84.2085 16.4403 83.8505 16.0497 83.5977 15.5469C83.3477 15.0412 83.2227 14.4489 83.2227 13.7699C83.2227 13.0994 83.3477 12.5085 83.5977 11.9972C83.8505 11.4858 84.2028 11.0866 84.6545 10.7997C85.109 10.5128 85.6403 10.3693 86.2482 10.3693C86.6175 10.3693 86.9755 10.4304 87.3221 10.5526C87.6687 10.6747 87.9798 10.8665 88.2553 11.1278C88.5309 11.3892 88.7482 11.7287 88.9073 12.1463C89.0664 12.5611 89.146 13.0653 89.146 13.6591V14.1108H83.9428V13.1562H87.8974C87.8974 12.821 87.8292 12.5241 87.6928 12.2656C87.5565 12.0043 87.3647 11.7983 87.1175 11.6477C86.8732 11.4972 86.5863 11.4219 86.2567 11.4219C85.8988 11.4219 85.5863 11.5099 85.3192 11.6861C85.055 11.8594 84.8505 12.0866 84.7056 12.3679C84.5636 12.6463 84.4925 12.9489 84.4925 13.2756V14.0213C84.4925 14.4588 84.5692 14.831 84.7227 15.1378C84.8789 15.4446 85.0962 15.679 85.3746 15.8409C85.6531 16 85.9783 16.0795 86.3505 16.0795C86.592 16.0795 86.8121 16.0455 87.011 15.9773C87.2099 15.9062 87.3817 15.8011 87.5266 15.6619C87.6715 15.5227 87.7823 15.3509 87.859 15.1463L89.065 15.3636C88.9684 15.7187 88.7951 16.0298 88.5451 16.2969C88.2979 16.5611 87.9869 16.767 87.6119 16.9148C87.2397 17.0597 86.815 17.1321 86.3377 17.1321ZM91.8338 8.27273V17H90.5597V8.27273H91.8338Z" fill="#10C843"/>
</svg>
