<svg width="56" height="56" viewBox="0 0 56 56" fill="none" xmlns="http://www.w3.org/2000/svg">
<rect x="0.5" y="0.5" width="55" height="55" rx="27.5" fill="#F2F2F2"/>
<path d="M30.9167 29.6667H30.2583L30.025 29.4417C30.8699 28.4617 31.3343 27.2106 31.3333 25.9167C31.3333 24.8454 31.0157 23.7981 30.4205 22.9073C29.8253 22.0166 28.9793 21.3223 27.9895 20.9123C26.9998 20.5023 25.9107 20.3951 24.8599 20.6041C23.8092 20.8131 22.844 21.329 22.0865 22.0865C21.329 22.844 20.8131 23.8092 20.6041 24.8599C20.3951 25.9107 20.5023 26.9998 20.9123 27.9895C21.3223 28.9793 22.0166 29.8253 22.9073 30.4205C23.7981 31.0157 24.8454 31.3333 25.9167 31.3333C27.2583 31.3333 28.4917 30.8417 29.4417 30.025L29.6667 30.2583V30.9167L33.8333 35.075L35.075 33.8333L30.9167 29.6667ZM25.9167 29.6667C23.8417 29.6667 22.1667 27.9917 22.1667 25.9167C22.1667 23.8417 23.8417 22.1667 25.9167 22.1667C27.9917 22.1667 29.6667 23.8417 29.6667 25.9167C29.6667 27.9917 27.9917 29.6667 25.9167 29.6667Z" fill="#1E1E1E"/>
<rect x="0.5" y="0.5" width="55" height="55" rx="27.5" stroke="#E0E0E0"/>
</svg>
