<svg width="30" height="30" viewBox="0 0 30 30" fill="none" xmlns="http://www.w3.org/2000/svg">
<path d="M16.8333 7.396C15.8111 7.396 14.8308 7.80206 14.108 8.52486C13.3852 9.24765 12.9791 10.228 12.9791 11.2502V13.396H10.9166C10.8131 13.396 10.7291 13.4799 10.7291 13.5835V16.4168C10.7291 16.5204 10.8131 16.6043 10.9166 16.6043H12.9791V22.4168C12.9791 22.5204 13.0631 22.6043 13.1666 22.6043H16C16.1035 22.6043 16.1875 22.5204 16.1875 22.4168V16.6043H18.2682C18.3543 16.6043 18.4293 16.5458 18.4501 16.4623L19.1585 13.629C19.188 13.5106 19.0985 13.396 18.9766 13.396H16.1875V11.2502C16.1875 11.0789 16.2555 10.9146 16.3766 10.7935C16.4977 10.6724 16.662 10.6043 16.8333 10.6043H19C19.1035 10.6043 19.1875 10.5204 19.1875 10.4168V7.5835C19.1875 7.47994 19.1035 7.396 19 7.396H16.8333Z" fill="white"/>
<rect width="30" height="30" rx="15" fill="white" fill-opacity="0.12"/>
</svg>
