<svg width="30" height="30" viewBox="0 0 30 30" fill="none" xmlns="http://www.w3.org/2000/svg">
<path d="M15 12.2918C13.5043 12.2918 12.2917 13.5043 12.2917 15.0001C12.2917 16.4959 13.5043 17.7085 15 17.7085C16.4958 17.7085 17.7084 16.4959 17.7084 15.0001C17.7084 13.5043 16.4958 12.2918 15 12.2918Z" fill="white"/>
<path fill-rule="evenodd" clip-rule="evenodd" d="M10.6413 7.56801C13.5147 7.24686 16.4853 7.24686 19.3588 7.56801C20.9408 7.74482 22.2168 8.9913 22.4024 10.5788C22.746 13.5163 22.746 16.4839 22.4024 19.4214C22.2168 21.0089 20.9408 22.2554 19.3588 22.4322C16.4853 22.7534 13.5147 22.7534 10.6413 22.4322C9.05931 22.2554 7.78332 21.0089 7.59764 19.4214C7.25407 16.4839 7.25407 13.5164 7.59764 10.5788C7.78332 8.9913 9.05931 7.74482 10.6413 7.56801ZM19.1667 10.0001C18.7065 10.0001 18.3334 10.3732 18.3334 10.8335C18.3334 11.2937 18.7065 11.6668 19.1667 11.6668C19.6269 11.6668 20 11.2937 20 10.8335C20 10.3732 19.6269 10.0001 19.1667 10.0001ZM11.0417 15.0001C11.0417 12.814 12.8139 11.0418 15 11.0418C17.1862 11.0418 18.9584 12.814 18.9584 15.0001C18.9584 17.1862 17.1862 18.9585 15 18.9585C12.8139 18.9585 11.0417 17.1862 11.0417 15.0001Z" fill="white"/>
<rect width="30" height="30" rx="15" fill="white" fill-opacity="0.12"/>
</svg>
