<svg width="30" height="30" viewBox="0 0 30 30" fill="none" xmlns="http://www.w3.org/2000/svg">
<path d="M14.9454 6.979C13.0858 6.99167 11.2884 7.65007 9.86072 8.84158C8.43301 10.0331 7.46366 11.6837 7.11851 13.5109C6.77336 15.3382 7.07385 17.2286 7.96858 18.8588C8.86331 20.489 10.2967 21.7577 12.0235 22.4478C11.9074 21.6883 11.9074 20.9156 12.0235 20.1561L12.9688 16.1457C12.8192 15.7825 12.7451 15.3926 12.7511 14.9998C12.7511 13.8884 13.3985 13.0519 14.2006 13.0519C14.3459 13.0497 14.4899 13.079 14.6229 13.1377C14.7558 13.1963 14.8745 13.2831 14.9708 13.3919C15.0671 13.5007 15.1388 13.6291 15.1809 13.7682C15.2229 13.9072 15.2345 14.0538 15.2146 14.1978C15.2146 14.641 15.0337 15.2271 14.8437 15.8424C14.7389 16.1816 14.6315 16.5296 14.55 16.8675C14.5007 17.0449 14.4949 17.2315 14.5329 17.4116C14.571 17.5918 14.652 17.76 14.7689 17.9022C14.8858 18.0444 15.0352 18.1564 15.2046 18.2286C15.3739 18.3008 15.5582 18.3311 15.7417 18.317C17.1625 18.317 18.2625 16.8103 18.2625 14.6446C18.2768 14.2046 18.1992 13.7663 18.0347 13.3579C17.8702 12.9495 17.6223 12.5799 17.307 12.2726C16.9916 11.9654 16.6157 11.7272 16.2031 11.5733C15.7906 11.4195 15.3505 11.3533 14.911 11.379C14.4417 11.3588 13.9732 11.4341 13.5339 11.6003C13.0945 11.7664 12.6935 12.02 12.355 12.3456C12.0165 12.6713 11.7476 13.0622 11.5645 13.4948C11.3815 13.9274 11.2882 14.3926 11.2901 14.8623C11.2838 15.5167 11.4843 16.1563 11.8631 16.6899C11.8906 16.7206 11.9102 16.7574 11.9202 16.7974C11.9302 16.8373 11.9302 16.8791 11.9204 16.9191C11.8573 17.1713 11.7198 17.7212 11.6969 17.83C11.674 17.9389 11.5766 18.0076 11.4276 17.9389C10.425 17.4691 9.80056 16.0082 9.80056 14.828C9.80056 12.3014 11.6396 9.97536 15.1 9.97536C17.8787 9.97536 20.0443 11.9576 20.0443 14.6103C20.0443 17.3717 18.3256 19.5946 15.8792 19.5946C15.5206 19.6071 15.1645 19.5298 14.8433 19.3697C14.5222 19.2096 14.2461 18.9718 14.0401 18.678L13.5417 20.5858C13.3028 21.3272 12.9676 22.0341 12.5448 22.6884C13.3239 22.9186 14.1331 23.0306 14.9454 23.0207C17.0726 23.0207 19.1127 22.1756 20.6169 20.6714C22.1211 19.1672 22.9662 17.1271 22.9662 14.9998C22.9662 12.8726 22.1211 10.8324 20.6169 9.32825C19.1127 7.82405 17.0726 6.979 14.9454 6.979Z" fill="white"/>
<rect width="30" height="30" rx="15" fill="white" fill-opacity="0.12"/>
</svg>
