<svg width="30" height="30" viewBox="0 0 30 30" fill="none" xmlns="http://www.w3.org/2000/svg">
<path d="M23.1748 10.1895C23.2231 10.1222 23.1518 10.0353 23.0745 10.0653C22.5256 10.278 21.9519 10.4216 21.3667 10.4923C22.0183 10.1031 22.5211 9.51049 22.7999 8.80894C22.8283 8.73747 22.7503 8.67365 22.683 8.71083C22.0774 9.04528 21.4242 9.28611 20.7458 9.42481C20.7174 9.43061 20.6881 9.42094 20.6682 9.39991C20.159 8.86268 19.4888 8.50498 18.7582 8.38137C18.0122 8.25517 17.2455 8.38013 16.5782 8.73665C15.9109 9.09318 15.3808 9.66111 15.0711 10.3514C14.7765 11.0077 14.6971 11.7393 14.8423 12.4419C14.8536 12.4964 14.8109 12.5478 14.7554 12.5444C13.4353 12.4624 12.1456 12.1113 10.9656 11.5122C9.78856 10.9147 8.74628 10.0834 7.90222 9.06958C7.86476 9.02458 7.79377 9.03041 7.76647 9.0822C7.50383 9.58059 7.36632 10.1361 7.36669 10.7007C7.36562 11.2626 7.50354 11.8162 7.76815 12.312C8.03277 12.8078 8.41587 13.2304 8.88336 13.5423C8.38759 13.5288 7.90148 13.4063 7.4594 13.1841C7.40242 13.1554 7.33408 13.1962 7.33705 13.2599C7.37152 14.0009 7.64357 14.7449 8.11445 15.3156C8.61555 15.923 9.31107 16.3387 10.0834 16.4923C9.78607 16.5828 9.47742 16.6305 9.16669 16.634C8.99757 16.632 8.82879 16.6195 8.6613 16.5966C8.5992 16.5882 8.5485 16.6471 8.57024 16.7059C8.80058 17.3288 9.20752 17.8724 9.74259 18.2691C10.3146 18.6933 11.0047 18.9286 11.7167 18.9423C10.5144 19.8884 9.02993 20.4047 7.50002 20.409C7.34282 20.4095 7.18569 20.4044 7.02892 20.3937C6.94058 20.3877 6.89996 20.5054 6.9761 20.5506C8.46674 21.4352 10.1705 21.9028 11.9084 21.9007C13.1914 21.914 14.4643 21.6715 15.6526 21.1874C16.8409 20.7033 17.9209 19.9872 18.8294 19.0811C19.7378 18.1749 20.4567 17.0968 20.9438 15.9098C21.431 14.7227 21.6767 13.4504 21.6667 12.1673V11.7675C21.6667 11.7412 21.6791 11.7164 21.7001 11.7006C22.2654 11.2738 22.7624 10.7643 23.1748 10.1895Z" fill="white"/>
<rect width="30" height="30" rx="15" fill="white" fill-opacity="0.12"/>
</svg>
