<svg width="54" height="54" viewBox="0 0 54 54" fill="none" xmlns="http://www.w3.org/2000/svg">
<path opacity="0.1" d="M46.0919 9.90811C41.0284 4.84463 34.1608 2 27 2C19.8392 2 12.9716 4.84464 7.90812 9.90812C2.84463 14.9716 -2.27618e-07 21.8392 0 29C2.27618e-07 36.1608 2.84463 43.0284 7.90812 48.0919L27 29L46.0919 9.90811Z" fill="#10C843"/>
<path d="M12.6947 12.826C7.39066 12.826 3.54866 16.974 3.54866 25.134C3.54866 33.226 7.39066 37.374 12.6947 37.374C17.9987 37.374 21.8407 33.226 21.8407 25.134C21.8407 16.974 17.9987 12.826 12.6947 12.826ZM12.6947 16.362C15.9927 16.362 17.7947 19.218 17.7947 25.1C17.7947 30.982 15.9927 33.838 12.6947 33.838C9.36266 33.838 7.56066 30.982 7.56066 25.1C7.56066 19.218 9.36266 16.362 12.6947 16.362ZM33.4418 21.802C31.9458 21.802 30.5518 22.244 29.4638 23.128L30.5518 16.668H40.2418V13.2H27.5938L25.3158 27.106H28.4098C29.4978 25.576 30.9258 25.168 32.3538 25.168C35.1758 25.168 36.8418 27.004 36.8418 29.52C36.8418 32.002 35.1078 33.804 32.1838 33.804C29.9058 33.804 28.1378 32.614 26.7438 30.064L23.7178 32.07C25.6218 35.674 28.4778 37.374 32.1838 37.374C36.8758 37.374 40.8538 34.416 40.8538 29.418C40.8538 25.508 38.1338 21.802 33.4418 21.802Z" fill="#10C843"/>
</svg>
