<svg width="54" height="54" viewBox="0 0 54 54" fill="none" xmlns="http://www.w3.org/2000/svg">
<path opacity="0.1" d="M7.90812 9.90811C12.9716 4.84463 19.8392 2 27 2C34.1608 2 41.0284 4.84464 46.0919 9.90812C51.1554 14.9716 54 21.8392 54 29C54 36.1608 51.1554 43.0284 46.0919 48.0919L27 29L7.90812 9.90811Z" fill="#10C843"/>
<path d="M12.1634 12.826C6.85941 12.826 3.01741 16.974 3.01741 25.134C3.01741 33.226 6.85941 37.374 12.1634 37.374C17.4674 37.374 21.3094 33.226 21.3094 25.134C21.3094 16.974 17.4674 12.826 12.1634 12.826ZM12.1634 16.362C15.4614 16.362 17.2634 19.218 17.2634 25.1C17.2634 30.982 15.4614 33.838 12.1634 33.838C8.83141 33.838 7.02941 30.982 7.02941 25.1C7.02941 19.218 8.83141 16.362 12.1634 16.362ZM37.8746 27.956V13.2H34.3386L23.2206 27.582V31.39H34.0326V37H37.8746V31.39H41.0706V27.956H37.8746ZM34.0326 19.048V27.956H27.0966L34.0326 19.048Z" fill="#10C843"/>
</svg>
