<svg width="54" height="54" viewBox="0 0 54 54" fill="none" xmlns="http://www.w3.org/2000/svg">
<path opacity="0.1" d="M7.90812 9.90811C12.9716 4.84463 19.8392 2 27 2C34.1608 2 41.0284 4.84464 46.0919 9.90812C51.1554 14.9716 54 21.8392 54 29C54 36.1608 51.1554 43.0284 46.0919 48.0919L27 29L7.90812 9.90811Z" fill="#10C843"/>
<path d="M12.9603 12.826C7.65628 12.826 3.81428 16.974 3.81428 25.134C3.81428 33.226 7.65628 37.374 12.9603 37.374C18.2643 37.374 22.1063 33.226 22.1063 25.134C22.1063 16.974 18.2643 12.826 12.9603 12.826ZM12.9603 16.362C16.2583 16.362 18.0603 19.218 18.0603 25.1C18.0603 30.982 16.2583 33.838 12.9603 33.838C9.62828 33.838 7.82628 30.982 7.82628 25.1C7.82628 19.218 9.62828 16.362 12.9603 16.362ZM33.6735 22.006C32.9935 22.006 32.3815 22.108 31.8375 22.244L38.8075 13.2H34.1495L26.5675 23.502C25.0375 25.61 24.3915 27.548 24.3915 29.588C24.3915 34.008 27.9615 37.374 32.8235 37.374C37.6855 37.374 41.2895 33.974 41.2895 29.486C41.2895 25.236 37.8895 22.006 33.6735 22.006ZM32.8235 33.804C30.2055 33.804 28.4035 32.104 28.4035 29.588C28.4035 27.14 30.2395 25.372 32.8235 25.372C35.3735 25.372 37.2435 27.14 37.2435 29.588C37.2435 32.07 35.4075 33.804 32.8235 33.804Z" fill="#10C843"/>
</svg>
