<svg width="54" height="54" viewBox="0 0 54 54" fill="none" xmlns="http://www.w3.org/2000/svg">
<path opacity="0.1" d="M46.0919 9.90811C41.0284 4.84463 34.1608 2 27 2C19.8392 2 12.9716 4.84464 7.90812 9.90812C2.84463 14.9716 -2.27618e-07 21.8392 0 29C2.27618e-07 36.1608 2.84463 43.0284 7.90812 48.0919L27 29L46.0919 9.90811Z" fill="#10C843"/>
<path d="M12.7279 12.826C7.42386 12.826 3.58186 16.974 3.58186 25.134C3.58186 33.226 7.42386 37.374 12.7279 37.374C18.0319 37.374 21.8739 33.226 21.8739 25.134C21.8739 16.974 18.0319 12.826 12.7279 12.826ZM12.7279 16.362C16.0259 16.362 17.8279 19.218 17.8279 25.1C17.8279 30.982 16.0259 33.838 12.7279 33.838C9.39586 33.838 7.59386 30.982 7.59386 25.1C7.59386 19.218 9.39586 16.362 12.7279 16.362ZM39.935 16.294V13.2H25.111V16.668H35.039L28.919 23.026V25.984H31.639C34.733 25.984 36.841 27.31 36.841 29.928C36.841 32.478 34.767 33.804 32.251 33.804C29.939 33.804 27.899 32.682 26.675 30.2L23.615 32.07C25.247 35.776 28.477 37.374 32.149 37.374C37.215 37.374 40.887 34.45 40.887 29.826C40.887 25.984 38.269 23.264 33.645 22.788L39.935 16.294Z" fill="#10C843"/>
</svg>
