<svg width="54" height="54" viewBox="0 0 54 54" fill="none" xmlns="http://www.w3.org/2000/svg">
<path opacity="0.1" d="M7.90812 9.90811C12.9716 4.84463 19.8392 2 27 2C34.1608 2 41.0284 4.84464 46.0919 9.90812C51.1554 14.9716 54 21.8392 54 29C54 36.1608 51.1554 43.0284 46.0919 48.0919L27 29L7.90812 9.90811Z" fill="#10C843"/>
<path d="M13.6575 12.826C8.35355 12.826 4.51155 16.974 4.51155 25.134C4.51155 33.226 8.35355 37.374 13.6575 37.374C18.9615 37.374 22.8035 33.226 22.8035 25.134C22.8035 16.974 18.9615 12.826 13.6575 12.826ZM13.6575 16.362C16.9555 16.362 18.7575 19.218 18.7575 25.1C18.7575 30.982 16.9555 33.838 13.6575 33.838C10.3255 33.838 8.52355 30.982 8.52355 25.1C8.52355 19.218 10.3255 16.362 13.6575 16.362ZM37.0907 26.494C38.7567 24.692 40.5587 22.652 40.5587 19.626C40.5587 15.75 37.7027 12.826 32.8747 12.826C27.6727 12.826 25.5647 16.43 24.9187 19.626L28.3187 20.68C28.7947 18.572 29.9507 16.396 32.8747 16.396C35.0167 16.396 36.5467 17.824 36.5467 19.762C36.5467 21.632 35.5947 22.822 34.2687 24.318L25.4287 34.042V37H40.6947V33.532H30.5967L37.0907 26.494Z" fill="#10C843"/>
</svg>
